<svg xmlns="http://www.w3.org/2000/svg" xmlns:xlink="http://www.w3.org/1999/xlink" width="1080" zoomAndPan="magnify" viewBox="0 0 810 809.999993" height="1080" preserveAspectRatio="xMidYMid meet" version="1.0"><defs><clipPath id="20e56ab2a1"><path d="M 147 424 L 638 424 L 638 729.027344 L 147 729.027344 Z M 147 424 " clip-rule="nonzero"/></clipPath><clipPath id="949def4cea"><path d="M 305 64.527344 L 543 64.527344 L 543 453 L 305 453 Z M 305 64.527344 " clip-rule="nonzero"/></clipPath></defs><g clip-path="url(#20e56ab2a1)"><path fill="currentColor" d="M 305.851562 578.238281 C 305.851562 578.238281 280.308594 593.773438 323.605469 598.214844 C 375.722656 604.859375 403.484375 603.757812 461.167969 592.671875 C 472.789062 599.789062 484.992188 605.707031 497.777344 610.425781 C 368 665.90625 203.75 607.101562 305.828125 578.238281 Z M 289.238281 506.125 C 289.238281 506.125 261.496094 527.199219 304.769531 531.664062 C 361.355469 537.210938 405.726562 538.308594 482.308594 522.796875 C 486.03125 526.574219 490.140625 529.867188 494.640625 532.679688 C 499.136719 535.488281 503.902344 537.738281 508.929688 539.429688 C 352.488281 586.027344 177.195312 543.875 289.238281 506.144531 Z M 595.453125 632.582031 C 595.453125 632.582031 614.308594 648.113281 574.378906 660.320312 C 500.039062 682.539062 262.617188 689.183594 196.046875 660.320312 C 172.75 650.355469 217.125 635.921875 231.347656 633.703125 C 245.777344 630.378906 253.566406 630.378906 253.566406 630.378906 C 228.023438 612.625 83.816406 666.988281 180.351562 682.5 C 445.511719 725.773438 664.082031 663.644531 595.289062 632.582031 Z M 317.851562 430.667969 C 317.851562 430.667969 196.921875 459.527344 274.578125 469.496094 C 307.863281 473.941406 373.316406 472.816406 434.339844 468.394531 C 484.257812 463.953125 534.21875 455.105469 534.21875 455.105469 C 534.21875 455.105469 516.464844 462.871094 504.253906 470.636719 C 381.121094 502.824219 144.78125 488.390625 212.472656 455.105469 C 270.15625 427.363281 317.875 430.707031 317.875 430.707031 Z M 534.21875 551.597656 C 658.472656 487.230469 600.789062 425.144531 560.839844 432.886719 C 550.871094 435.109375 546.40625 437.332031 546.40625 437.332031 C 546.40625 437.332031 549.730469 430.6875 557.496094 428.464844 C 636.277344 400.722656 698.402344 511.667969 531.957031 554.921875 C 531.957031 554.921875 533.054688 553.820312 534.175781 551.597656 Z M 330.105469 726.894531 C 449.914062 734.660156 632.996094 722.449219 637.417969 665.84375 C 637.417969 665.84375 628.550781 688.0625 538.683594 704.675781 C 436.605469 723.527344 310.128906 721.285156 235.792969 709.117188 C 235.792969 709.117188 251.324219 722.40625 330.105469 726.871094 Z M 330.105469 726.894531 " fill-opacity="1" fill-rule="nonzero"/></g><g clip-path="url(#949def4cea)"><path fill="currentColor" d="M 458.96875 64.546875 C 458.96875 64.546875 527.761719 134.441406 393.519531 239.839844 C 285.894531 325.265625 369.121094 374.082031 393.519531 429.566406 C 330.269531 372.984375 284.796875 323.042969 315.859375 276.46875 C 361.332031 207.65625 486.710938 174.578125 458.96875 64.546875 Z M 423.667969 382.96875 C 455.855469 419.578125 414.800781 452.863281 414.800781 452.863281 C 414.800781 452.863281 496.90625 410.710938 459.175781 358.550781 C 424.789062 308.632812 398.128906 284.214844 542.378906 201.011719 C 542.378906 201.011719 314.945312 257.59375 423.667969 382.96875 Z M 423.667969 382.96875 " fill-opacity="1" fill-rule="nonzero"/></g></svg>